HIERARCHY
ROOT root
{
	OFFSET 0.000000 0.000000 0.000000
	CHANNELS 6 Xposition Yposition Zposition Zrotation Yrotation Xrotation
	JOINT lhip
	{
		OFFSET 0.058581 -0.082280 -0.017664
		CHANNELS 3 Zrotation Yrotation Xrotation
		JOINT lknee
		{
			OFFSET 0.043451 -0.386469 0.008037
			CHANNELS 3 Zrotation Yrotation Xrotation
			JOINT lankle
			{
				OFFSET -0.014790 -0.426874 -0.037428
				CHANNELS 3 Zrotation Yrotation Xrotation
				JOINT ltoe
				{
					OFFSET 0.041054 -0.060286 0.122042
					CHANNELS 3 Zrotation Yrotation Xrotation
					End Site
					{
						OFFSET 0.000000 0.000000 0.000000
					}
				}
			}
		}
	}
	JOINT rhip
	{
		OFFSET -0.060310 -0.090513 -0.013543
		CHANNELS 3 Zrotation Yrotation Xrotation
		JOINT rknee
		{
			OFFSET -0.043257 -0.383688 -0.004843
			CHANNELS 3 Zrotation Yrotation Xrotation
			JOINT rankle
			{
				OFFSET 0.019056 -0.420046 -0.034562
				CHANNELS 3 Zrotation Yrotation Xrotation
				JOINT rtoe
				{
					OFFSET -0.034840 -0.062106 0.130323
					CHANNELS 3 Zrotation Yrotation Xrotation
					End Site
					{
						OFFSET 0.000000 0.000000 0.000000
					}
				}
			}
		}
	}
	JOINT lowerback
	{
		OFFSET 0.004439 0.124404 -0.038385
		CHANNELS 3 Zrotation Yrotation Xrotation
		JOINT upperback
		{
			OFFSET 0.004488 0.137956 0.026820
			CHANNELS 3 Zrotation Yrotation Xrotation
			JOINT chest
			{
				OFFSET -0.002265 0.056032 0.002855
				CHANNELS 3 Zrotation Yrotation Xrotation
				JOINT lowerneck
				{
					OFFSET -0.013390 0.211636 -0.033468
					CHANNELS 3 Zrotation Yrotation Xrotation
					JOINT upperneck
					{
						OFFSET 0.010113 0.088937 0.050410
						CHANNELS 3 Zrotation Yrotation Xrotation
						End Site
						{
							OFFSET 0.000000 0.000000 0.000000
						}
					}
				}
				JOINT lclavicle
				{
					OFFSET 0.071702 0.114000 -0.018898
					CHANNELS 3 Zrotation Yrotation Xrotation
					JOINT lshoulder
					{
						OFFSET 0.122921 0.045205 -0.019046
						CHANNELS 3 Zrotation Yrotation Xrotation
						JOINT lelbow
						{
							OFFSET 0.255332 -0.015649 -0.022946
							CHANNELS 3 Zrotation Yrotation Xrotation
							JOINT lwrist
							{
								OFFSET 0.265709 0.012698 -0.007375
								CHANNELS 3 Zrotation Yrotation Xrotation
								End Site
								{
									OFFSET 0.000000 0.000000 0.000000
								}
							}
						}
					}
				}
				JOINT rclavicle
				{
					OFFSET -0.082954 0.112472 -0.023707
					CHANNELS 3 Zrotation Yrotation Xrotation
					JOINT rshoulder
					{
						OFFSET -0.113228 0.046853 -0.008472
						CHANNELS 3 Zrotation Yrotation Xrotation
						JOINT relbow
						{
							OFFSET -0.260127 -0.014369 -0.031269
							CHANNELS 3 Zrotation Yrotation Xrotation
							JOINT rwrist
							{
								OFFSET -0.269108 0.006794 -0.006027
								CHANNELS 3 Zrotation Yrotation Xrotation
								End Site
								{
									OFFSET 0.000000 0.000000 0.000000
								}
							}
						}
					}
				}
			}
		}
	}
}
MOTION
Frames: 7
Frame Time: 0.033333
0.226673 0.912514 0.991451 -87.594606 0.014696 89.531489 5.122719 2.218011 3.590584 -4.644327 -1.395508 -2.224485 -1.579337 10.060208 -8.133663 0.000000 -0.000000 0.000000 -6.982467 -5.266344 2.054138 1.263315 -3.139487 2.212534 5.731966 -5.802880 -7.323284 0.000000 -0.000000 0.000000 -0.505570 -0.077611 1.718212 -0.282718 -3.052323 0.824337 -0.230840 -3.196689 -0.704720 4.250740 3.704514 -2.277730 2.891069 2.318120 6.489387 -28.733891 8.588044 2.571680 -55.344020 -2.613583 9.721902 6.766820 -34.729642 7.383895 -0.124678 -24.009526 -10.531022 27.533329 -1.381027 0.421705 57.911531 4.075377 15.512162 -7.425380 18.678216 6.502716 3.792379 9.482026 0.777192 
0.224238 0.906440 0.990887 -87.159285 0.160052 89.614970 4.749202 2.241047 3.646659 -4.350950 -1.998698 -2.232059 -1.292581 9.997132 -8.483282 0.000000 -0.000000 0.000000 -7.027879 -5.404146 1.633314 0.874072 -3.183775 3.289472 6.021955 -6.010308 -7.584128 0.000000 -0.000000 0.000000 -0.408889 -0.040484 1.588557 -0.269888 -2.988923 1.089893 -0.219514 -3.094827 -0.774308 4.303980 3.293016 -3.014911 3.390976 1.416604 6.207582 -28.389733 8.444230 2.660160 -55.880532 -2.800216 9.608918 6.960875 -34.977686 7.011872 -0.770579 -23.975215 -10.286213 27.407533 -0.948935 0.288528 57.650176 3.633289 15.461713 -7.964334 18.799594 6.729326 4.711272 9.488845 1.378913 
0.221322 0.898931 0.990012 -86.834848 0.049202 89.527741 4.103194 2.063622 4.097518 -4.305798 -2.387306 -2.511468 -0.839033 10.054795 -8.756751 0.000000 -0.000000 0.000000 -7.477747 -5.347535 1.063341 0.497775 -3.483570 4.935391 5.969820 -6.394866 -8.131740 0.000000 -0.000000 0.000000 -0.402538 0.345295 1.379764 -0.226201 -2.568294 1.510261 -0.420849 -3.114620 -0.670108 4.661603 2.479657 -3.403870 3.508300 0.759362 5.698616 -28.403877 8.087299 2.499270 -55.798364 -3.122809 9.657896 6.842840 -35.061547 6.799498 -1.472487 -23.951302 -9.876577 27.486811 -1.000285 -0.182795 57.473454 3.449044 15.258664 -8.550796 18.386933 6.058504 5.396688 9.696798 1.267753 
0.217770 0.888510 0.988764 -87.007542 -0.114984 89.752645 3.337747 2.016740 4.335723 -4.559623 -2.863685 -2.735470 -0.334524 10.167829 -9.355868 0.000000 -0.000000 0.000000 -7.974617 -5.365414 -0.644618 -0.422813 -3.306550 7.795972 6.074429 -6.372251 -9.004061 0.000000 -0.000000 0.000000 -0.514743 0.535536 0.981725 -0.070646 -2.316642 2.177985 -0.440843 -2.765212 -1.198954 4.616319 2.166596 -3.670237 3.621867 0.258441 5.122844 -28.424876 8.070581 1.917580 -55.767346 -2.578634 9.872638 6.628023 -35.292944 6.210638 -1.690808 -24.139404 -9.407672 27.377031 -0.637583 -0.067386 57.141477 3.393818 15.051825 -8.593421 18.244098 5.600020 4.918345 9.757739 2.297306 
0.214308 0.880341 0.988175 -86.341589 -0.327643 89.124450 2.586245 1.694641 5.294551 -4.512559 -3.794474 -2.858852 -0.077190 10.270909 -9.783378 0.000000 -0.000000 0.000000 -8.624265 -4.282093 -0.310964 -0.606489 -3.844092 9.273100 6.071495 -7.019925 -9.449294 0.000000 -0.000000 0.000000 -0.436573 0.010276 1.596112 -0.216999 -2.062004 2.092901 -0.462287 -2.730894 -1.023536 4.512208 1.868480 -3.842225 3.745019 -0.180755 4.791707 -28.632586 7.932739 2.110648 -55.652962 -2.603370 9.457345 6.598364 -35.522775 6.300133 -1.936234 -24.308150 -9.486346 27.288381 -0.409524 0.036895 57.040770 3.365979 14.843796 -8.882759 18.388235 5.545626 4.854209 9.831918 2.052605 
0.212523 0.871524 0.986878 -87.019211 -0.441665 89.410320 1.980988 1.748057 5.073327 -4.876014 -3.617580 -2.560615 0.600647 10.349896 -10.421350 0.000000 -0.000000 0.000000 -8.906841 -4.972758 -2.853603 -1.383528 -3.442837 13.116493 5.963350 -6.643205 -10.122523 0.000000 -0.000000 0.000000 -0.323508 0.556660 1.356162 -0.151191 -1.791028 2.600774 -0.709354 -2.570183 -1.573117 4.527165 1.486808 -3.875687 3.744391 -0.474934 4.638488 -28.492251 7.975284 1.484865 -55.580002 -2.085758 9.936906 6.843706 -35.502052 5.500961 -2.148191 -24.251403 -8.982204 27.402267 -0.127667 0.020475 56.957392 3.506173 14.886673 -8.811814 18.357597 4.798254 4.594573 9.989357 2.232576 
0.207978 0.860507 0.985906 -86.623400 -0.765591 88.411647 0.963185 1.717932 6.504519 -4.965392 -4.228558 -2.630868 1.044520 10.557295 -10.902726 0.000000 -0.000000 0.000000 -9.966164 -3.828562 -2.985027 -1.543602 -4.060377 16.165574 5.699852 -7.253876 -10.810189 0.000000 -0.000000 0.000000 -0.175134 -0.180285 2.382866 -0.327795 -1.539168 2.569127 -0.816571 -2.385070 -1.437567 4.296797 1.201650 -3.806371 3.639723 -0.644580 4.026852 -28.617836 7.784159 1.695612 -55.352170 -1.873462 9.415733 6.914718 -35.715785 5.424186 -2.805961 -24.137143 -8.841083 27.209492 0.402033 0.133898 57.052314 3.498957 14.702606 -9.050613 18.973326 4.425494 4.941063 10.068098 1.737005 
